<svg preserveAspectRatio="none" overflow="visible" style="display: block;" width="93" height="93" viewBox="0 0 93 93" fill="none" xmlns="http://www.w3.org/2000/svg">
<g id="boxicons:business">
<path id="Vector" d="M77.5 23.25H62V15.5C62 11.2375 58.5125 7.75 54.25 7.75H15.5C11.2375 7.75 7.75 11.2375 7.75 15.5V81.375C7.75 83.5062 9.49375 85.25 11.625 85.25H81.375C83.5062 85.25 85.25 83.5062 85.25 81.375V31C85.25 26.7375 81.7625 23.25 77.5 23.25ZM77.5 77.5H15.5V15.5H54.25V27.125C54.25 29.2563 55.9938 31 58.125 31H77.5V77.5Z" fill="#073132"/>
<path id="Vector_2" d="M38.75 23.25H46.5V31H38.75V23.25ZM23.25 23.25H31V31H23.25V23.25ZM23.25 38.75H31V46.5H23.25V38.75ZM38.75 38.75H46.5V46.5H38.75V38.75ZM62 38.75H69.75V46.5H62V38.75ZM38.75 54.25H46.5V62H38.75V54.25ZM23.25 54.25H31V62H23.25V54.25ZM62 54.25H69.75V62H62V54.25Z" fill="#073132"/>
</g>
</svg>
